#define dragon_wing1_width 8
#define dragon_wing1_height 8
static unsigned char dragon_wing1_bits[] = {
  0xb8,
  0xd4,
  0x3e,
  0x4e,
  0x0e,
  0x1c,
  0x3a,
  0x1c
};
