#define frooty_p2_sprite_width 8
#define frooty_p2_sprite_height 20
static unsigned char frooty_p2_sprite_bits[] = {
  0x00, 0x08, 0x1C, 0x3C,
  0x1E, 0x1C, 0x08, 0x00,
  0x00, 0x00, 0x00, 0x00,
  0x00, 0x00, 0x00, 0x00,
  0x00, 0x00, 0x00, 0x00
};


