#define frooty_p3_sprite_width 8
#define frooty_p3_sprite_height 20
static unsigned char frooty_p3_sprite_bits[] = {
  0x00, 0x00, 0x00, 0x00,
  0x00, 0x22, 0x14, 0x1C,
  0x08, 0x1C, 0x1C, 0x3C,
  0x5E, 0x51, 0x64, 0x34,
  0x14, 0x04, 0x06, 0x02
};


