#define frooty_p1_sprite_width 8
#define frooty_p1_sprite_height 20
static unsigned char frooty_p1_sprite_bits[] = {
  0x03, 0x01, 0x03, 0x02,
  0x00, 0x00, 0x60, 0xC0,
  0x80, 0x80, 0x00, 0x00,
  0x20, 0x04, 0x00, 0x00,
  0x00, 0x00, 0x00, 0x00
};


