#define frooty_lollipop_width 16
#define frooty_lollipop_height 16
static unsigned char frooty_lollipop_bits[] = {
  0x03, 0xC0,
  0x3F, 0xFC,
  0x3A, 0xA8,
  0xEF, 0xFF,
  0xEF, 0xAA,
  0xEE, 0xFC,
  0xEE, 0xF0,
  0xEE, 0xF0,
  0xEE, 0xF0,
  0xEE, 0xF0,
  0xEE, 0xFC,
  0xEF, 0xAA,
  0xEF, 0xFF,
  0x3A, 0xA8,
  0x3F, 0xFC,
  0x03, 0xC0
};


