#define PorkChop_playeridleleft_width 8
#define PorkChop_playeridleleft_height 16
static unsigned char PorkChop_playeridleleft_bits[] = {
  0xe7,
  0xc0,
  0xc3,
  0xc1,
  0xc7,
  0xe7,
  0xe7,
  0x83,
  0x45,
  0x45,
  0x01,
  0x83,
  0xd7,
  0xd7,
  0x93,
  0x11
};

