#define PorkChop_playergas2_width 8
#define PorkChop_playergas2_height 16
static unsigned char PorkChop_playergas2_bits[] = {
  0xff,
  0x7b,
  0xef,
  0xdf,
  0xf5,
  0xb5,
  0xc5,
  0x40,
  0x40,
  0x21,
  0x87,
  0xc1,
  0x00,
  0x43,
  0xbd,
  0x19
};

