#define PorkChop_playerzap1_width 8
#define PorkChop_playerzap1_height 16
static unsigned char PorkChop_playerzap1_bits[] = {
  0x49,
  0xe0,
  0xc0,
  0x71,
  0x43,
  0x66,
  0x07,
  0xe1,
  0xc6,
  0xc6,
  0xe6,
  0x86,
  0xb7,
  0xba,
  0x1d,
  0xfd
};

