#define PorkChop_playerwalkleft1_width 8
#define PorkChop_playerwalkleft1_height 16
static unsigned char PorkChop_playerwalkleft1_bits[] = {
  0xe7,
  0xc0,
  0xc3,
  0xc1,
  0xc7,
  0xe7,
  0xe7,
  0x83,
  0x41,
  0x40,
  0x01,
  0x07,
  0xd7,
  0xd7,
  0xb1,
  0x1b
};

