#define PorkChop_playerstun2_width 8
#define PorkChop_playerstun2_height 16
static unsigned char PorkChop_playerstun2_bits[] = {
  0xc5,
  0xbb,
  0xd7,
  0x75,
  0xe3,
  0xe3,
  0xc3,
  0x8f,
  0x47,
  0x63,
  0x41,
  0x55,
  0xd7,
  0xdb,
  0xdb,
  0x11
};

