#define PorkChop_playerstun1_width 8
#define PorkChop_playerstun1_height 16
static unsigned char PorkChop_playerstun1_bits[] = {
  0xd6,
  0xf7,
  0xa1,
  0xe1,
  0xc3,
  0x87,
  0xef,
  0x87,
  0x07,
  0x41,
  0x45,
  0x55,
  0xd7,
  0xdb,
  0xdb,
  0x11
};

