#define PorkChop_playergas1_width 8
#define PorkChop_playergas1_height 16
static unsigned char PorkChop_playergas1_bits[] = {
  0xf5,
  0xbb,
  0x7d,
  0xe7,
  0xc7,
  0x9d,
  0xbd,
  0xb5,
  0x80,
  0x00,
  0x01,
  0x83,
  0x0b,
  0x1b,
  0x83,
  0x11
};

