#define PorkChop_playerwalkleft2_width 8
#define PorkChop_playerwalkleft2_height 16
static unsigned char PorkChop_playerwalkleft2_bits[] = {
  0xcf,
  0x81,
  0x87,
  0x83,
  0x8f,
  0xcf,
  0xcf,
  0xc7,
  0xc3,
  0x83,
  0x81,
  0xc1,
  0xd7,
  0xef,
  0xd3,
  0x87
};

