#define PorkChop_playerwalkright1_width 8
#define PorkChop_playerwalkright1_height 16
static unsigned char PorkChop_playerwalkright1_bits[] = {
  0xe7,
  0x03,
  0xc3,
  0x83,
  0xe3,
  0xe7,
  0xe7,
  0xc1,
  0x02,
  0x02,
  0x80,
  0xe0,
  0xeb,
  0xeb,
  0x8d,
  0xd8
};

