#define PorkChop_playerzap2_width 8
#define PorkChop_playerzap2_height 16
static unsigned char PorkChop_playerzap2_bits[] = {
  0xe6,
  0xf1,
  0x80,
  0xb0,
  0xa1,
  0xa6,
  0xc6,
  0xc1,
  0xc7,
  0xc6,
  0xd7,
  0xd7,
  0xef,
  0xd7,
  0xbb,
  0x01
};

