#define PorkChop_playerwalkright2_width 8
#define PorkChop_playerwalkright2_height 16
static unsigned char PorkChop_playerwalkright2_bits[] = {
  0xf3,
  0x81,
  0xe1,
  0xc1,
  0xf1,
  0xf3,
  0xf3,
  0xe3,
  0xc3,
  0xc1,
  0x81,
  0x83,
  0xeb,
  0xf7,
  0xcb,
  0xe1
};

