#define PorkChop_playeridleright_width 8
#define PorkChop_playeridleright_height 16
static unsigned char PorkChop_playeridleright_bits[] = {
  0xe7,
  0x03,
  0xc3,
  0x83,
  0xe3,
  0xe7,
  0xe7,
  0xc1,
  0xa2,
  0xa2,
  0x80,
  0xc1,
  0xeb,
  0xeb,
  0xc9,
  0x88
};

